<?xml version="1.0" encoding="UTF-8"?>
<!DOCTYPE svg PUBLIC "-//W3C//DTD SVG 1.1//EN" "http://www.w3.org/Graphics/SVG/1.1/DTD/svg11.dtd">
<svg xmlns="http://www.w3.org/2000/svg" version="1.1" width="1563px" height="1563px" style="shape-rendering:geometricPrecision; text-rendering:geometricPrecision; image-rendering:optimizeQuality; fill-rule:evenodd; clip-rule:evenodd" xmlns:xlink="http://www.w3.org/1999/xlink">
<g><path style="opacity:0.983" fill="#0a5ec7" d="M 777.5,400.5 C 834.784,456.118 891.451,512.451 947.5,569.5C 927.847,589.653 908.014,609.653 888,629.5C 831.32,572.986 774.82,516.32 718.5,459.5C 737.881,439.452 757.548,419.785 777.5,400.5 Z"/></g>
<g><path style="opacity:0.977" fill="#33cc32" d="M 684.5,492.5 C 738.451,544.784 791.784,597.784 844.5,651.5C 824.847,671.653 805.014,691.653 785,711.5C 731.347,659.014 678.181,606.014 625.5,552.5C 645.188,532.479 664.855,512.479 684.5,492.5 Z"/></g>
<g><path style="opacity:0.962" fill="#33cc32" d="M 1022.5,522.5 C 1023.87,522.343 1025.21,522.51 1026.5,523C 1019.58,547.854 1012.58,572.687 1005.5,597.5C 1000.04,591.541 994.376,585.708 988.5,580C 987.833,579.333 987.167,579.333 986.5,580C 919.946,646.888 853.112,713.388 786,779.5C 754.667,748.167 723.333,716.833 692,685.5C 672.5,705 653,724.5 633.5,744C 632.833,744.667 632.167,744.667 631.5,744C 625.833,738.333 620.167,732.667 614.5,727C 640.333,701.167 666.167,675.333 692,649.5C 723.333,680.833 754.667,712.167 786,743.5C 846.861,682.306 908.027,621.472 969.5,561C 963.469,554.634 957.136,548.634 950.5,543C 950.833,542.667 951.167,542.333 951.5,542C 975.416,535.941 999.083,529.441 1022.5,522.5 Z"/></g>
<g><path style="opacity:0.976" fill="#0a5ec7" d="M 591.5,585.5 C 614.096,606.428 636.096,628.095 657.5,650.5C 637.527,670.139 617.527,689.806 597.5,709.5C 575.68,688.181 554.014,666.681 532.5,645C 552.368,625.299 572.035,605.465 591.5,585.5 Z"/></g>
<g><path style="opacity:0.972" fill="#0a5ec7" d="M 977.5,600.5 C 995.582,617.079 1013.25,634.246 1030.5,652C 1010.65,672.014 990.653,691.847 970.5,711.5C 952.973,694.806 935.973,677.64 919.5,660C 938.661,640.006 957.994,620.173 977.5,600.5 Z"/></g>
<g><path style="opacity:0.981" fill="#1f76bb" d="M 499.5,758.5 C 526.855,758.126 554.188,758.626 581.5,760C 635.879,765.207 663.212,795.04 663.5,849.5C 663.092,904.413 635.426,934.246 580.5,939C 553.502,939.5 526.502,939.667 499.5,939.5C 499.5,879.167 499.5,818.833 499.5,758.5 Z M 542.5,794.5 C 559.123,794.021 575.457,795.855 591.5,800C 607.782,806.72 616.615,818.887 618,836.5C 619.326,849.709 618.326,862.709 615,875.5C 609.284,889.881 598.784,898.381 583.5,901C 569.908,903.025 556.242,903.858 542.5,903.5C 542.5,867.167 542.5,830.833 542.5,794.5 Z"/></g>
<g><path style="opacity:0.971" fill="#1f76bb" d="M 671.5,758.5 C 693.177,758.167 714.844,758.5 736.5,759.5C 748.638,801.246 760.972,842.913 773.5,884.5C 786.294,842.949 798.794,801.282 811,759.5C 832.427,758.34 853.927,758.174 875.5,759C 876.498,819.095 876.831,879.262 876.5,939.5C 862.167,939.5 847.833,939.5 833.5,939.5C 833.667,894.165 833.5,848.832 833,803.5C 819.333,848.5 805.667,893.5 792,938.5C 779.667,939.833 767.333,939.833 755,938.5C 741.536,893.107 727.869,847.773 714,802.5C 713.5,848.165 713.333,893.832 713.5,939.5C 699.5,939.5 685.5,939.5 671.5,939.5C 671.5,879.167 671.5,818.833 671.5,758.5 Z"/></g>
<g><path style="opacity:0.97" fill="#1f76bb" d="M 877.5,758.5 C 892.5,758.5 907.5,758.5 922.5,758.5C 935.892,802.512 949.392,846.512 963,890.5C 976.667,846.833 990.333,803.167 1004,759.5C 1019.09,758.509 1034.26,758.176 1049.5,758.5C 1029.57,818.614 1009.24,878.614 988.5,938.5C 971.513,939.499 954.513,939.833 937.5,939.5C 917.099,879.297 897.099,818.963 877.5,758.5 Z"/></g>
<g><path style="opacity:0.899" fill="#0082a5" d="M 879.5,988.5 C 893.029,986.892 901.529,992.559 905,1005.5C 907.536,1016.73 905.036,1026.57 897.5,1035C 876.147,1043.66 864.48,1036.49 862.5,1013.5C 862.693,1005.07 865.693,997.902 871.5,992C 874.158,990.522 876.825,989.355 879.5,988.5 Z M 882.5,998.5 C 887.669,998.491 891.169,1000.82 893,1005.5C 893.667,1011.17 893.667,1016.83 893,1022.5C 887.785,1030.09 882.118,1030.42 876,1023.5C 873.749,1016.35 874.083,1009.35 877,1002.5C 878.5,1000.53 880.333,999.198 882.5,998.5 Z"/></g>
<g><path style="opacity:0.885" fill="#0082a5" d="M 938.5,988.5 C 944.369,988.048 950.035,988.881 955.5,991C 957.846,992.013 959.513,993.679 960.5,996C 958.702,998.966 956.369,1001.47 953.5,1003.5C 949.317,998.715 944.317,997.548 938.5,1000C 936.113,1002.95 936.779,1005.29 940.5,1007C 946.477,1007.66 952.144,1009.33 957.5,1012C 962.209,1018.47 962.709,1025.3 959,1032.5C 956.374,1035.23 953.207,1037.06 949.5,1038C 942.129,1039.31 935.129,1038.31 928.5,1035C 926.981,1033.65 925.648,1032.15 924.5,1030.5C 926.5,1027.83 928.833,1025.5 931.5,1023.5C 937.341,1029 943.508,1029.67 950,1025.5C 950.825,1023.3 950.325,1021.47 948.5,1020C 942.259,1019.16 936.259,1017.49 930.5,1015C 924.284,1007.93 923.95,1000.6 929.5,993C 932.437,991.199 935.437,989.699 938.5,988.5 Z"/></g>
<g><path style="opacity:0.888" fill="#0082a5" d="M 541.5,989.5 C 553.833,989.5 566.167,989.5 578.5,989.5C 578.5,992.833 578.5,996.167 578.5,999.5C 574.5,999.5 570.5,999.5 566.5,999.5C 566.5,1012.17 566.5,1024.83 566.5,1037.5C 562.5,1037.5 558.5,1037.5 554.5,1037.5C 554.5,1024.83 554.5,1012.17 554.5,999.5C 550.167,999.5 545.833,999.5 541.5,999.5C 541.5,996.167 541.5,992.833 541.5,989.5 Z"/></g>
<g><path style="opacity:0.903" fill="#0082a5" d="M 610.5,989.5 C 615.167,989.5 619.833,989.5 624.5,989.5C 629.294,1005.22 634.294,1020.88 639.5,1036.5C 635.5,1037.83 631.5,1037.83 627.5,1036.5C 626.654,1033.45 625.654,1030.45 624.5,1027.5C 619.5,1026.17 614.5,1026.17 609.5,1027.5C 608.091,1030.73 607.091,1034.06 606.5,1037.5C 602.445,1037.82 598.445,1037.49 594.5,1036.5C 599.843,1020.81 605.176,1005.14 610.5,989.5 Z M 616.5,1001.5 C 618.457,1005.95 620.124,1010.62 621.5,1015.5C 618.5,1016.83 615.5,1016.83 612.5,1015.5C 614.041,1010.88 615.374,1006.21 616.5,1001.5 Z"/></g>
<g><path style="opacity:0.888" fill="#0082a5" d="M 655.5,989.5 C 659.846,989.334 664.179,989.501 668.5,990C 671.333,994.833 674.167,999.667 677,1004.5C 680.085,1000 682.918,995.333 685.5,990.5C 689.795,989.339 694.129,989.172 698.5,990C 693.5,997.667 688.5,1005.33 683.5,1013C 688.697,1020.7 693.697,1028.53 698.5,1036.5C 694.205,1037.66 689.871,1037.83 685.5,1037C 682.459,1031.75 679.292,1026.58 676,1021.5C 673.167,1026.5 670.333,1031.5 667.5,1036.5C 663.205,1037.66 658.871,1037.83 654.5,1037C 659.25,1028.83 664.25,1020.83 669.5,1013C 664.182,1005.52 659.515,997.691 655.5,989.5 Z"/></g>
<g><path style="opacity:0.924" fill="#0082a5" d="M 747.5,989.5 C 756.839,989.334 766.173,989.5 775.5,990C 785.223,995.842 787.723,1004.01 783,1014.5C 781.062,1017.11 778.562,1018.94 775.5,1020C 769.843,1020.5 764.176,1020.67 758.5,1020.5C 758.5,1026.17 758.5,1031.83 758.5,1037.5C 754.833,1037.5 751.167,1037.5 747.5,1037.5C 747.5,1021.5 747.5,1005.5 747.5,989.5 Z M 758.5,999.5 C 762.846,999.334 767.179,999.501 771.5,1000C 774.167,1003.33 774.167,1006.67 771.5,1010C 767.179,1010.5 762.846,1010.67 758.5,1010.5C 758.5,1006.83 758.5,1003.17 758.5,999.5 Z"/></g>
<g><path style="opacity:0.915" fill="#0082a5" d="M 805.5,989.5 C 814.839,989.334 824.173,989.5 833.5,990C 843.617,995.692 846.117,1003.86 841,1014.5C 839.316,1016.35 837.483,1018.02 835.5,1019.5C 838.372,1025.41 841.372,1031.24 844.5,1037C 840.167,1037.67 835.833,1037.67 831.5,1037C 828.599,1032.03 826.099,1026.87 824,1021.5C 821.619,1020.56 819.119,1020.23 816.5,1020.5C 816.5,1026.17 816.5,1031.83 816.5,1037.5C 812.833,1037.5 809.167,1037.5 805.5,1037.5C 805.5,1021.5 805.5,1005.5 805.5,989.5 Z M 816.5,999.5 C 820.846,999.334 825.179,999.501 829.5,1000C 831.72,1003.1 832.053,1006.43 830.5,1010C 825.845,1010.5 821.179,1010.67 816.5,1010.5C 816.5,1006.83 816.5,1003.17 816.5,999.5 Z"/></g>
</svg>
